<svg version="1.2" xmlns="http://www.w3.org/2000/svg" viewBox="0 0 100 36" width="100" height="36">
	<title>brightnesssvg-svg</title>
	<style>
		.s0 { fill: #ffac33;stroke: #000000;stroke-width: .4 } 
	</style>
	<g id="SVGRepo_bgCarrier">
	</g>
	<g id="SVGRepo_iconCarrier">
		<path id="Layer" class="s0" d="m48 2c0 0 0-2 2-2 2 0 2 2 2 2v2c0 0 0 2-2 2-2 0-2-2-2-2zm18 14c0 0 2 0 2 2 0 2-2 2-2 2h-2c0 0-2 0-2-2 0-2 2-2 2-2zm-30 0c0 0 2 0 2 2 0 2-2 2-2 2h-2c0 0-2 0-2-2 0-2 2-2 2-2zm5.1-8.7c0 0 1.4 1.4 0 2.8-1.4 1.4-2.8 0-2.8 0l-1.4-1.4c0 0-1.4-1.4 0-2.8 1.4-1.4 2.8 0 2.8 0zm21 21c0 0 1.4 1.4 0 2.8-1.4 1.4-2.8 0-2.8 0l-1.4-1.4c0 0-1.4-1.4 0-2.8 1.4-1.4 2.8 0 2.8 0zm-0.4-18.2c0 0-1.4 1.4-2.8 0-1.5-1.4 0-2.8 0-2.8l1.4-1.4c0 0 1.4-1.5 2.8 0 1.4 1.4 0 2.8 0 2.8zm-21 21c0 0-1.4 1.4-2.8 0-1.4-1.4 0-2.8 0-2.8l1.4-1.5c0 0 1.4-1.4 2.8 0 1.4 1.5 0 2.9 0 2.9zm7.3 0.8c0 0 0-2 2-2 2 0 2 2 2 2v2c0 0 0 2-2 2-2 0-2-2-2-2z"/>
		<path id="Layer" class="s0" d="m50 28c-5.5 0-10-4.5-10-10 0-5.5 4.5-10 10-10 5.5 0 10 4.5 10 10 0 5.5-4.5 10-10 10z"/>
	</g>
</svg>