<svg version="1.2" xmlns="http://www.w3.org/2000/svg" viewBox="0 0 20 20" width="20" height="20">
	<title>coloursvg-svg</title>
	<style>
		.s0 { fill: #d8d8da;stroke: #000000;stroke-width: 0 } 
		.s1 { fill: #a636e7;stroke: #000000;stroke-width: 0 } 
		.s2 { fill: #ea2e99;stroke: #000000;stroke-width: 0 } 
		.s3 { fill: #e5244b;stroke: #000000;stroke-width: 0 } 
		.s4 { fill: #2b9ff3;stroke: #000000;stroke-width: 0 } 
		.s5 { fill: #35fde2;stroke: #000000;stroke-width: 0 } 
		.s6 { fill: #25d055;stroke: #000000;stroke-width: 0 } 
		.s7 { fill: #fdda2b;stroke: #000000;stroke-width: 0 } 
		.s8 { fill: #f0a428;stroke: #000000;stroke-width: 0 } 
		.s9 { fill: #931dd7;stroke: #000000;stroke-width: 0 } 
		.s10 { fill: #e42f93;stroke: #000000;stroke-width: 0 } 
		.s11 { fill: #27c44e;stroke: #000000;stroke-width: 0 } 
	</style>
	<g id="SVGRepo_bgCarrier">
	</g>
	<g id="SVGRepo_iconCarrier">
		<path id="Layer" fill-rule="evenodd" class="s0" d="m10 20c-5.5 0-10-4.5-10-10 0-5.5 4.5-10 10-10 5.5 0 10 4.5 10 10 0 5.5-4.5 10-10 10zm3.2-10c0-1.7-1.5-3.2-3.2-3.2-1.7 0-3.2 1.5-3.2 3.2 0 1.7 1.5 3.2 3.2 3.2 1.7 0 3.2-1.5 3.2-3.2z"/>
		<path id="Layer" class="s1" d="m8.9 7.4l6.1-6.1c2.2 1.3 3.9 3.5 4.6 6.1h-8.5z"/>
		<path id="Layer" class="s2" d="m7.4 8.9v-8.5q1.2-0.4 2.6-0.4c1.8 0 3.5 0.5 5 1.3l-6.1 6.1z"/>
		<path id="Layer" class="s3" d="m7.4 11.1l-6.1-6.1c1.3-2.2 3.5-3.9 6.1-4.6v8.5c0 0 0 2.2 0 2.2z"/>
		<g id="Layer">
			<path id="Layer" class="s0" d="m8.9 7.4h2.2-2.2l-1.5 1.5z"/>
			<path id="Layer" class="s0" d="m11.1 12.6l1.5-1.5-1.5 1.5h-2.2l-1.5-1.5 1.5 1.5z"/>
		</g>
		<path id="Layer" class="s4" d="m20 10c0 1.8-0.5 3.5-1.3 5l-6.1-6.1-1.5-1.5h8.5q0.4 1.2 0.4 2.6z"/>
		<path id="Layer" class="s5" d="m12.6 8.9l6.1 6.1c-1.3 2.2-3.5 3.9-6.1 4.6v-8.5z"/>
		<path id="Layer" class="s6" d="m12.6 11.1v8.5q-1.2 0.4-2.6 0.4c-1.8 0-3.5-0.5-5-1.3l6.1-6.1z"/>
		<path id="Layer" class="s7" d="m11.1 12.6l-6.1 6.1c-2.2-1.3-3.9-3.5-4.6-6.1h8.5z"/>
		<path id="Layer" class="s8" d="m8.9 12.6h-8.5q-0.4-1.2-0.4-2.6c0-1.8 0.5-3.5 1.3-5l6.1 6.1z"/>
		<path id="Layer" class="s0" d="m12.6 8.9l-1.5-1.5z"/>
		<path id="Layer" class="s9" d="m11.1 7.4h-1.1v-1.1l5-5c2.2 1.3 3.9 3.5 4.6 6.1 0 0-8.5 0-8.5 0z"/>
		<path id="Layer" class="s10" d="m10 6.3v-6.3c1.8 0 3.5 0.5 5 1.3z"/>
		<path id="Layer" class="s11" d="m11.1 12.6l1.5-1.5v8.5q-1.2 0.4-2.6 0.4v-6.3z"/>
		<path id="Layer" class="s7" d="m10 13.7v-1.1h1.1z"/>
		<g id="Layer">
		</g>
		<g id="Layer">
		</g>
		<g id="Layer">
		</g>
		<g id="Layer">
		</g>
		<g id="Layer">
		</g>
		<g id="Layer">
		</g>
		<g id="Layer">
		</g>
		<g id="Layer">
		</g>
		<g id="Layer">
		</g>
		<g id="Layer">
		</g>
		<g id="Layer">
		</g>
		<g id="Layer">
		</g>
		<g id="Layer">
		</g>
		<g id="Layer">
		</g>
		<g id="Layer">
		</g>
	</g>
</svg>