<svg width="20px" height="20px" viewBox="0 0 32 32" enable-background="new 0 0 32 32" version="1.1" xml:space="preserve" xmlns="http://www.w3.org/2000/svg" xmlns:xlink="http://www.w3.org/1999/xlink" fill="#000000" stroke="#000000" stroke-width="0"><g id="SVGRepo_bgCarrier" stroke-width="0"></g><g id="SVGRepo_iconCarrier"><g id="Home"></g><g id="Print"></g><g id="Mail"></g><g id="Camera"></g><g id="Video"></g><g id="Film"></g><g id="Message"></g><g id="Telephone"></g><g id="User"></g><g id="File"></g><g id="Folder"></g><g id="Map"></g><g id="Download"></g><g id="Upload"></g><g id="Video_Recorder"></g><g id="Schedule"></g><g id="Cart"></g><g id="Setting"></g><g id="Search"></g><g id="Pencils"><path d="M31,29.7l-0.9-6.8c0-0.2-0.1-0.4-0.3-0.6L13.3,5.8l0,0l0,0L9.4,1.9C8.8,1.3,8,1,7.2,1l0,0 C6.8,1,6.4,1.1,6,1.2c0,0,0,0,0,0C5.8,1.3,5.7,1.4,5.5,1.5c0,0-0.1,0-0.1,0C5.3,1.6,5.1,1.8,4.9,1.9L3.4,3.5l0,0L1.9,5 c-1.2,1.2-1.2,3.2,0,4.5l3.9,3.8l0,0l0,0l16.5,16.5c0.2,0.2,0.4,0.3,0.6,0.3l7,0.9c0,0,0.1,0,0.1,0c0,0,0,0,0,0 c0.3,0,0.5-0.1,0.7-0.3c0.2-0.2,0.3-0.4,0.3-0.7C31,29.9,31,29.8,31,29.7z" fill="#FFC10A"></path><path d="M13.2,5.7C13.2,5.7,13.3,5.8,13.2,5.7L9.4,1.9C8.8,1.3,8,1,7.2,1c0,0,0,0,0,0C6.4,1,5.6,1.3,4.9,1.9 L3.4,3.5l0,0L1.9,5c-1.2,1.2-1.2,3.2,0,4.5l3.9,3.8c-0.4-0.4-0.4-1,0-1.4l0.7-0.7l2.3-2.3l3-3c0.2-0.2,0.4-0.3,0.7-0.3 c0,0,0.1,0,0.1,0c0.1,0,0.2,0,0.3,0.1C13.1,5.6,13.2,5.7,13.2,5.7L13.2,5.7C13.3,5.8,13.3,5.8,13.2,5.7L13.2,5.7z" fill="#F44236"></path></g><g id="Group"></g><g id="Record"></g><g id="Headphone"></g><g id="Music_Player"></g><g id="Sound_On"></g><g id="Sound_Off"></g><g id="Lock"></g><g id="Lock_open"></g><g id="Love"></g><g id="Favorite"></g><g id="Film_1_"></g><g id="Music"></g><g id="Puzzle"></g><g id="Turn_Off"></g><g id="Book"></g><g id="Save"></g><g id="Reload"></g><g id="Trash"></g><g id="Tag"></g><g id="Link"></g><g id="Like"></g><g id="Bad"></g><g id="Gallery"></g><g id="Add"></g><g id="Close"></g><g id="Forward"></g><g id="Back"></g><g id="Buy"></g><g id="Mac"></g><g id="Laptop"></g></g></svg>