<svg version="1.2" xmlns="http://www.w3.org/2000/svg" viewBox="0 0 25 25" width="25" height="25">
	<title>settingssvg-svg</title>
	<style>
		.s0 { fill: #2e79bd } 
		.s1 { fill: #2d3e50 } 
	</style>
	<path id="Layer" class="s0" d="m12.4 15c0.1-0.6 0.3-1.1 0.6-1.6 0.3-0.4 0.8-0.8 1.3-0.9 0.6-0.2 1.1-0.3 1.7-0.1q0.1 0 0.2 0 0.1 0.1 0.2 0.1 0.1 0 0.2 0.1 0.1 0 0.1 0.1 0.4 0.2 0.7 0.6 0.3 0.3 0.5 0.7 0.2 0.5 0.2 0.9 0.1 0.5-0.1 0.9 0 0.1 0 0.2-0.1 0.1-0.1 0.2 0 0.1-0.1 0.2 0 0.1-0.1 0.2-0.1 0.1-0.2 0.3-0.1 0.1-0.2 0.2-0.1 0.2-0.3 0.3-0.1 0.1-0.3 0.2 0 0-0.1 0.1-0.1 0-0.2 0.1-0.1 0-0.2 0-0.1 0.1-0.2 0.1-0.5 0.1-0.9 0.1-0.5-0.1-0.9-0.2-0.4-0.2-0.8-0.5-0.3-0.3-0.6-0.7c-0.2-0.5-0.4-1.1-0.4-1.6z"/>
	<path id="Layer" class="s1" d="m24.3 14.2c0.2 0.3 0.3 0.6 0.3 0.9 0 0.4-0.1 0.7-0.3 0.9-0.3 0.3-0.6 0.4-0.9 0.4h-0.6q-0.1 0.4-0.2 0.8-0.1 0.5-0.3 0.8-0.1 0.4-0.3 0.8-0.3 0.4-0.5 0.7l0.4 0.4c0.2 0.3 0.4 0.6 0.4 0.9 0 0.4-0.2 0.7-0.4 0.9-0.2 0.3-0.6 0.4-0.9 0.4-0.3 0-0.7-0.1-0.9-0.4l-0.4-0.4q-0.3 0.3-0.7 0.5-0.4 0.2-0.8 0.4-0.4 0.1-0.8 0.3-0.4 0.1-0.8 0.1v0.6c0 0.3-0.2 0.7-0.4 0.9-0.3 0.2-0.6 0.4-0.9 0.4-0.4 0-0.7-0.2-0.9-0.4-0.2-0.2-0.4-0.6-0.4-0.9v-0.6q-0.4 0-0.8-0.1-0.4-0.2-0.8-0.3-0.4-0.2-0.8-0.4-0.4-0.2-0.7-0.5l-0.4 0.4c-0.3 0.3-0.6 0.4-0.9 0.4-0.4 0-0.7-0.1-0.9-0.4-0.3-0.2-0.4-0.5-0.4-0.9 0-0.3 0.1-0.6 0.4-0.9l0.4-0.4q-0.3-0.3-0.5-0.7-0.2-0.4-0.4-0.8-0.1-0.3-0.2-0.8-0.2-0.4-0.2-0.8h-0.6q-0.3 0-0.6-0.2-0.3-0.1-0.5-0.4-0.1-0.3-0.2-0.7 0-0.3 0.2-0.6 0.1 0.1 0.2 0.1 0.1 0.1 0.2 0.1 0.1 0 0.3 0 0.1 0 0.2 0 0.3 0 0.6-0.1 0.3-0.1 0.6-0.3 0.2-0.2 0.4-0.5 0.2-0.2 0.2-0.6 0.2 0 0.3-0.1 0.2 0 0.3-0.1 0.2 0 0.3-0.1 0.2-0.1 0.3-0.1 0.1 0 0.1 0 0.1 0.1 0.2 0.1 0 0 0.1 0.1 0.1 0 0.2 0c-0.4 0.9-0.6 1.9-0.4 2.8 0.1 1 0.5 1.9 1.1 2.7 0.7 0.7 1.5 1.2 2.4 1.5 0.9 0.3 1.9 0.4 2.9 0.1q0.1 0 0.3-0.1 0.2 0 0.4-0.1 0.1-0.1 0.3-0.2 0.2 0 0.3-0.1 0.3-0.2 0.6-0.4 0.2-0.2 0.4-0.4 0.3-0.2 0.5-0.5 0.2-0.2 0.3-0.5 0.1-0.2 0.2-0.4 0.1-0.1 0.2-0.3 0-0.2 0.1-0.3 0-0.2 0.1-0.4 0.2-0.8 0.1-1.6 0-0.9-0.3-1.6-0.4-0.8-0.9-1.4-0.6-0.7-1.3-1.1-0.1-0.1-0.3-0.2-0.2-0.1-0.3-0.1-0.2-0.1-0.4-0.2-0.2 0-0.3-0.1-0.4-0.1-0.7-0.1-0.3 0-0.6 0-0.3 0-0.7 0-0.3 0-0.6 0.1-0.1 0.1-0.3 0.1-0.1 0.1-0.3 0.1-0.1 0.1-0.3 0.1-0.1 0.1-0.3 0.2 0-0.1 0-0.1 0-0.1-0.1-0.1 0-0.1 0-0.1-0.1-0.1-0.1-0.2 0.1-0.1 0.2-0.2 0-0.2 0.1-0.3 0-0.2 0.1-0.3 0-0.2 0.1-0.3 0.3-0.1 0.6-0.3 0.3-0.1 0.5-0.4 0.2-0.2 0.3-0.5 0.1-0.3 0.1-0.7 0-0.1 0-0.2 0-0.1-0.1-0.2 0-0.2-0.1-0.3 0-0.1-0.1-0.2 0.3-0.3 0.7-0.4 0.4-0.1 0.7 0.1 0.4 0.1 0.6 0.4 0.3 0.4 0.3 0.8v0.5q0.4 0.1 0.8 0.2 0.4 0.1 0.8 0.3 0.4 0.2 0.8 0.4 0.4 0.2 0.7 0.4l0.4-0.4c0.2-0.2 0.6-0.3 0.9-0.3 0.3 0 0.6 0.1 0.9 0.3 0.2 0.3 0.4 0.6 0.4 0.9 0 0.4-0.2 0.7-0.4 0.9l-0.4 0.4q0.2 0.4 0.5 0.7 0.2 0.4 0.3 0.8 0.2 0.4 0.3 0.8 0.1 0.4 0.2 0.9h0.6c0.3 0 0.6 0.1 0.9 0.3z"/>
	<path id="Layer" fill-rule="evenodd" class="s0" d="m6.1 12.4q-0.3 0-0.6-0.1-0.3-0.1-0.6-0.2-0.3-0.1-0.5-0.3-0.3-0.1-0.5-0.3l-0.3 0.3q-0.3 0.3-0.7 0.3-0.3 0-0.6-0.3-0.2-0.3-0.3-0.6 0.1-0.4 0.3-0.7l0.3-0.2q-0.2-0.3-0.3-0.6-0.2-0.2-0.3-0.5-0.1-0.3-0.2-0.6-0.1-0.3-0.1-0.6h-0.4q-0.4 0-0.7-0.2-0.2-0.3-0.2-0.7 0-0.3 0.2-0.6 0.3-0.3 0.7-0.3h0.4q0-0.3 0.1-0.6 0.1-0.2 0.2-0.5 0.1-0.3 0.3-0.6 0.1-0.2 0.3-0.5l-0.3-0.3q-0.2-0.2-0.3-0.6 0.1-0.4 0.3-0.6 0.3-0.3 0.6-0.3 0.4 0 0.7 0.3l0.3 0.2q0.2-0.1 0.5-0.3 0.2-0.1 0.5-0.2 0.3-0.2 0.6-0.2 0.3-0.1 0.6-0.2v-0.4q0-0.3 0.2-0.6 0.3-0.3 0.7-0.3 0.3 0 0.6 0.3 0.3 0.3 0.3 0.6v0.4q0.3 0.1 0.6 0.2 0.3 0 0.5 0.2 0.3 0.1 0.6 0.2 0.3 0.2 0.5 0.3l0.3-0.2q0.2-0.3 0.6-0.3 0.4 0 0.6 0.3 0.3 0.2 0.3 0.6 0 0.4-0.3 0.6l-0.2 0.3q0.1 0.3 0.3 0.5 0.1 0.3 0.3 0.6 0.1 0.3 0.2 0.5 0 0.3 0.1 0.6h0.4q0.4 0 0.6 0.3 0.3 0.3 0.3 0.6 0 0.4-0.3 0.7-0.2 0.2-0.6 0.2h-0.4q-0.1 0.3-0.1 0.6-0.1 0.3-0.2 0.6-0.2 0.3-0.3 0.5-0.2 0.3-0.3 0.6l0.2 0.2q0.3 0.3 0.3 0.7 0 0.3-0.3 0.6-0.2 0.3-0.6 0.3-0.4 0-0.6-0.3l-0.3-0.3q-0.2 0.2-0.5 0.3-0.3 0.2-0.6 0.3-0.2 0.1-0.5 0.2-0.3 0.1-0.6 0.1v0.4q0 0.4-0.3 0.7-0.3 0.2-0.6 0.2-0.4 0-0.7-0.2-0.2-0.3-0.2-0.7zm-0.1-2.5q0.3 0.1 0.6 0.1 0.2 0 0.5 0 0.3 0 0.6-0.1 0.1 0 0.2 0 0.1 0 0.2-0.1 0.1 0 0.2-0.1 0.1 0 0.2-0.1 0.1-0.1 0.3-0.2 0.1-0.1 0.2-0.2 0.2-0.1 0.3-0.3 0.1-0.1 0.2-0.3 0-0.1 0.1-0.2 0-0.1 0.1-0.2 0-0.1 0-0.2 0.1-0.1 0.1-0.2 0.1-0.4 0.1-0.9-0.1-0.4-0.2-0.9-0.2-0.4-0.5-0.8-0.3-0.3-0.7-0.6-0.1 0-0.2-0.1-0.1 0-0.2-0.1-0.1 0-0.2 0-0.1-0.1-0.2-0.1c-0.7-0.2-1.4-0.1-2 0.2-0.6 0.3-1.1 0.9-1.4 1.5-0.3 0.7-0.3 1.4-0.1 2 0.2 0.7 0.7 1.3 1.3 1.6q0.2 0.2 0.5 0.3z"/>
</svg>