<svg version="1.2" xmlns="http://www.w3.org/2000/svg" viewBox="0 0 20 20" width="20" height="20">
	<title>brightnesssvg-svg</title>
	<style>
		.s0 { fill: #ffac33;stroke: #000000;stroke-width: .2 } 
	</style>
	<g id="SVGRepo_bgCarrier">
	</g>
	<g id="SVGRepo_iconCarrier">
		<path id="Layer" class="s0" d="m8.9 1.1c0 0 0-1.1 1.1-1.1 1.1 0 1.1 1.1 1.1 1.1v1.1c0 0 0 1.1-1.1 1.1-1.1 0-1.1-1.1-1.1-1.1zm10 7.8c0 0 1.1 0 1.1 1.1 0 1.1-1.1 1.1-1.1 1.1h-1.1c0 0-1.1 0-1.1-1.1 0-1.1 1.1-1.1 1.1-1.1zm-16.7 0c0 0 1.1 0 1.1 1.1 0 1.1-1.1 1.1-1.1 1.1h-1.1c0 0-1.1 0-1.1-1.1 0-1.1 1.1-1.1 1.1-1.1zm2.8-4.8c0 0 0.8 0.7 0 1.5-0.7 0.8-1.5 0-1.5 0l-0.8-0.8c0 0-0.8-0.7 0-1.5 0.8-0.8 1.6 0 1.6 0zm11.6 11.6c0 0 0.8 0.8 0 1.6-0.8 0.8-1.5 0-1.5 0l-0.8-0.8c0 0-0.8-0.8 0-1.5 0.8-0.8 1.5 0 1.5 0zm-0.2-10.1c0 0-0.8 0.7-1.6 0-0.7-0.8 0-1.6 0-1.6l0.8-0.8c0 0 0.8-0.8 1.6 0 0.8 0.8 0 1.6 0 1.6zm-11.7 11.6c0 0-0.8 0.8-1.5 0-0.8-0.7 0-1.5 0-1.5l0.7-0.8c0 0 0.8-0.8 1.6 0 0.8 0.8 0 1.6 0 1.6zm4.1 0.4c0 0 0-1.1 1.1-1.1 1.1 0 1.1 1.1 1.1 1.1v1.2c0 0 0 1.1-1.1 1.1-1.1 0-1.1-1.1-1.1-1.1z"/>
		<path id="Layer" class="s0" d="m10 15.6c-3.1 0-5.6-2.5-5.6-5.6 0-3.1 2.5-5.6 5.6-5.6 3.1 0 5.6 2.5 5.6 5.6 0 3.1-2.5 5.6-5.6 5.6z"/>
	</g>
</svg>