<svg version="1.2" xmlns="http://www.w3.org/2000/svg" viewBox="0 0 25 25" width="25" height="25">
	<title>light-bulb-idea-svgrepo-com-svg</title>
	<style>
		.s0 { fill: #000000 } 
	</style>
	<path id="Layer" class="s0" d="m11.1 13.5q0 0 0 0-0.1-0.1-0.1-0.1 0 0 0 0-0.1-0.1-0.1-0.1v-3.5q0-0.1 0.1-0.1 0 0 0-0.1 0 0 0.1 0 0 0 0 0 0.1 0 0.1 0 0 0 0.1 0 0 0.1 0 0.1 0 0 0 0.1v3.5q0 0 0 0.1 0 0 0 0-0.1 0-0.1 0.1 0 0-0.1 0z"/>
	<path id="Layer" class="s0" d="m11.1 10q0 0 0-0.1-0.1 0-0.1 0 0 0 0-0.1-0.1 0-0.1 0c0-0.6-0.4-1-0.9-1-0.1 0-0.2-0.1-0.2-0.2 0-0.1 0.1-0.2 0.2-0.2 0.7 0 1.3 0.6 1.3 1.4q0 0 0 0 0 0.1 0 0.1-0.1 0-0.1 0 0 0.1-0.1 0.1z"/>
	<path id="Layer" class="s0" d="m8.8 10q0 0-0.1-0.1 0 0 0 0-0.1 0-0.1-0.1 0 0 0 0c0-0.8 0.6-1.4 1.4-1.4 0.1 0 0.2 0.1 0.2 0.2 0 0.1-0.1 0.2-0.2 0.2-0.6 0-1 0.4-1 1q0 0 0 0 0 0.1-0.1 0.1 0 0 0 0-0.1 0.1-0.1 0.1z"/>
	<path id="Layer" class="s0" d="m10 11.1c-0.8 0-1.4-0.6-1.4-1.3q0-0.1 0-0.1 0 0 0.1-0.1 0 0 0 0 0.1 0 0.1 0 0 0 0.1 0 0 0 0 0 0.1 0.1 0.1 0.1 0 0 0 0.1c0 0.5 0.4 0.9 1 0.9q0 0 0 0.1 0.1 0 0.1 0 0 0 0 0.1 0.1 0 0.1 0 0 0.1-0.1 0.1 0 0 0 0.1 0 0-0.1 0 0 0 0 0zm3.9 2.4q-0.1 0-0.1 0 0-0.1-0.1-0.1 0 0 0 0 0-0.1 0-0.1v-3.5q0-0.1 0-0.1 0 0 0-0.1 0.1 0 0.1 0 0 0 0.1 0 0 0 0 0 0.1 0 0.1 0 0 0.1 0 0.1 0.1 0 0.1 0.1v3.5q0 0-0.1 0.1 0 0 0 0 0 0-0.1 0.1 0 0 0 0z"/>
	<path id="Layer" class="s0" d="m13.9 10q-0.1 0-0.1-0.1 0 0-0.1 0 0 0 0-0.1 0 0 0 0c0-0.8 0.6-1.4 1.3-1.4 0.1 0 0.2 0.1 0.2 0.2 0 0.1-0.1 0.2-0.2 0.2-0.5 0-0.9 0.4-0.9 1q0 0-0.1 0 0 0.1 0 0.1 0 0-0.1 0 0 0.1 0 0.1z"/>
	<path id="Layer" class="s0" d="m16.2 10q0 0-0.1-0.1 0 0 0 0-0.1 0-0.1-0.1 0 0 0 0c0-0.6-0.4-1-1-1-0.1 0-0.2-0.1-0.2-0.2 0-0.1 0.1-0.2 0.2-0.2 0.8 0 1.4 0.6 1.4 1.4q0 0 0 0 0 0.1-0.1 0.1 0 0 0 0-0.1 0.1-0.1 0.1z"/>
	<path id="Layer" class="s0" d="m15 11.1q0 0 0 0-0.1 0-0.1 0 0-0.1 0-0.1-0.1 0-0.1-0.1 0 0 0.1 0 0-0.1 0-0.1 0 0 0.1 0 0-0.1 0-0.1c0.6 0 1-0.4 1-0.9q0-0.1 0-0.1 0 0 0.1-0.1 0 0 0 0 0.1 0 0.1 0 0 0 0.1 0 0 0 0 0 0.1 0.1 0.1 0.1 0 0 0 0.1c0 0.7-0.6 1.3-1.4 1.3z"/>
	<path id="Layer" class="s0" d="m15 11.1q-0.2 0-0.4 0-0.1-0.1-0.1-0.1 0 0 0 0 0-0.1 0-0.1-0.1-0.1 0-0.1c0-0.1 0.1-0.1 0.2-0.1q0.1 0 0.1 0 0 0 0.1 0 0 0 0.1 0 0 0 0 0 0.1 0 0.2 0.1 0 0.1 0 0.1 0 0.1 0 0.2-0.1 0-0.2 0zm-5 0q-0.1 0-0.1 0 0 0-0.1 0 0-0.1 0-0.1 0 0 0-0.1 0 0 0 0 0-0.1 0-0.1 0.1 0 0.1 0 0-0.1 0.1-0.1 0.1 0 0.3 0c0.1 0 0.2 0 0.2 0.1q0.1 0 0 0.1 0 0 0 0.1 0 0 0 0 0 0-0.1 0.1 0 0-0.1 0 0 0-0.1 0-0.1 0-0.1 0-0.1 0-0.1 0zm7 6.7h-9c-0.1 0-0.2-0.1-0.2-0.2 0-0.1 0.1-0.2 0.2-0.2h9c0.1 0 0.2 0.1 0.2 0.2 0 0.1-0.1 0.2-0.2 0.2z"/>
	<path id="Layer" class="s0" d="m15.8 18.6q0 0-0.1-0.1 0 0 0 0 0 0-0.1-0.1 0 0 0 0v-0.8q0-0.1 0-0.1 0.1 0 0.1-0.1 0 0 0 0 0.1 0 0.1 0 0.1 0 0.1 0 0 0 0.1 0 0 0.1 0 0.1 0 0 0 0.1v0.8q0 0 0 0 0 0.1 0 0.1-0.1 0-0.1 0 0 0.1-0.1 0.1zm-1.5 0q-0.1 0-0.1-0.1-0.1 0-0.1 0 0 0 0-0.1 0 0 0 0v-0.8q0-0.1 0-0.1 0 0 0-0.1 0 0 0.1 0 0 0 0.1 0 0 0 0 0 0.1 0 0.1 0 0 0.1 0 0.1 0.1 0 0.1 0.1v0.8q0 0-0.1 0 0 0.1 0 0.1 0 0-0.1 0 0 0.1 0 0.1zm-1.8 0q0 0-0.1-0.1 0 0 0 0-0.1 0-0.1-0.1 0 0 0 0v-0.8q0-0.1 0-0.1 0 0 0.1-0.1 0 0 0 0 0.1 0 0.1 0 0 0 0.1 0 0 0 0 0 0.1 0.1 0.1 0.1 0 0 0 0.1v0.8q0 0 0 0 0 0.1-0.1 0.1 0 0 0 0-0.1 0.1-0.1 0.1zm-1.8 0q0 0 0-0.1-0.1 0-0.1 0 0 0 0-0.1-0.1 0-0.1 0v-0.8c0-0.1 0.1-0.2 0.2-0.2 0.2 0 0.2 0.1 0.2 0.2v0.8q0 0 0 0 0 0.1 0 0.1 0 0-0.1 0 0 0.1-0.1 0.1zm-1.5 0q-0.1 0-0.1-0.1 0 0-0.1 0 0 0 0-0.1 0 0 0 0v-0.8q0-0.1 0-0.1 0 0 0-0.1 0.1 0 0.1 0 0 0 0.1 0 0 0 0.1 0 0 0 0 0 0 0.1 0.1 0.1 0 0 0 0.1v0.8q0 0 0 0-0.1 0.1-0.1 0.1 0 0 0 0-0.1 0.1-0.1 0.1zm-1.2 1.5q0 0-0.1 0 0 0 0 0 0-0.1-0.1-0.1 0 0 0-0.1 0 0 0 0 0-0.1 0.1-0.1 0 0 0-0.1 0.1 0 0.1 0l9-0.8c0.1 0 0.2 0.1 0.2 0.2q0 0.1 0 0.1 0 0-0.1 0.1 0 0 0 0-0.1 0-0.1 0l-9 0.8q0 0 0 0z"/>
	<path id="Layer" class="s0" d="m8 21.3q0 0-0.1 0 0 0 0-0.1 0 0-0.1 0 0-0.1 0-0.1 0 0 0-0.1 0 0 0.1 0 0-0.1 0-0.1 0.1 0 0.1 0l9-0.8c0.1 0 0.2 0.1 0.2 0.2q0 0 0 0.1 0 0-0.1 0 0 0.1 0 0.1-0.1 0-0.1 0l-9 0.8q0 0 0 0z"/>
	<path id="Layer" class="s0" d="m8.4 21.3q0 0-0.1 0 0 0 0-0.1-0.1 0-0.1 0 0-0.1 0-0.1v-2.7q0-0.1 0-0.1 0-0.1 0.1-0.1 0 0 0 0 0.1 0 0.1 0 0 0 0.1 0 0 0 0 0 0.1 0 0.1 0.1 0 0 0 0.1v2.7q0 0 0 0.1 0 0-0.1 0 0 0.1 0 0.1-0.1 0-0.1 0z"/>
	<path id="Layer" class="s0" d="m16.6 21.3q0 0-0.1 0 0 0 0-0.1-0.1 0-0.1 0 0-0.1 0-0.1v-0.7q0-0.1 0-0.1 0-0.1 0.1-0.1 0 0 0 0 0.1 0 0.1 0 0 0 0.1 0 0 0 0 0 0.1 0 0.1 0.1 0 0 0 0.1v0.7q0 0 0 0.1 0 0-0.1 0 0 0.1 0 0.1-0.1 0-0.1 0z"/>
	<path id="Layer" class="s0" d="m16.6 20.6q0 0-0.1-0.1 0 0 0 0-0.1 0-0.1-0.1 0 0 0 0v-2q0-0.1 0-0.1 0-0.1 0.1-0.1 0 0 0 0 0.1 0 0.1 0 0 0 0.1 0 0 0 0 0 0.1 0 0.1 0.1 0 0 0 0.1v2q0 0 0 0 0 0.1-0.1 0.1 0 0 0 0-0.1 0.1-0.1 0.1z"/>
	<path id="Layer" class="s0" d="m15.8 22.1h-6.6q0 0-0.1 0 0 0 0-0.1 0 0 0 0 0 0-0.1 0l-0.7-0.8q-0.1 0-0.1 0 0-0.1 0-0.1 0-0.1 0-0.1 0 0 0.1-0.1 0 0 0 0 0.1 0 0.1 0 0 0 0.1 0 0 0 0 0l0.8 0.8h6.4l0.8-0.8q0 0 0 0 0.1 0 0.1 0 0 0 0.1 0 0 0 0 0 0.1 0.1 0.1 0.1 0 0 0 0.1 0 0 0 0.1 0 0-0.1 0l-0.7 0.8q-0.1 0-0.1 0 0 0 0 0 0 0.1 0 0.1-0.1 0-0.1 0z"/>
	<path id="Layer" class="s0" d="m12.5 22.8c-1.9 0-2-0.9-2-0.9q0-0.1 0.1-0.1 0 0 0-0.1 0 0 0.1 0 0 0 0 0 0.1 0 0.1 0 0.1 0 0.1 0 0 0.1 0 0.1 0 0 0 0.1c0 0 0.1 0.6 1.6 0.6 1.5 0 1.6-0.6 1.6-0.6 0-0.1 0.1-0.2 0.2-0.2 0.1 0 0.2 0.1 0.2 0.2 0 0-0.1 0.9-2 0.9z"/>
	<path id="Layer" class="s0" d="m11.1 15.4q0 0 0 0 0 0 0 0-0.1 0-0.1 0 0 0 0 0 0 0 0-0.1-0.1 0-0.1-0.1 0 0 0 0 0.1-0.1 0.1-0.1l1.4-1.6q0 0 0 0 0 0 0.1 0 0 0 0.1 0 0 0 0 0 0.1 0 0.1 0.1 0 0 0 0.1 0 0 0 0 0 0.1-0.1 0.1l-1.3 1.6q0 0 0 0-0.1 0-0.1 0 0 0 0 0 0 0-0.1 0z"/>
	<path id="Layer" class="s0" d="m13.9 15.4q-0.1 0-0.1 0 0 0 0 0 0 0-0.1 0 0 0 0 0l-1.3-1.6q-0.1 0-0.1-0.1 0 0 0 0 0-0.1 0-0.1 0-0.1 0.1-0.1c0.1 0 0.2 0 0.2 0l1.4 1.6q0 0 0.1 0.1 0 0 0 0 0 0.1-0.1 0.1 0 0.1 0 0.1 0 0 0 0 0 0-0.1 0 0 0 0 0 0 0 0 0zm-2 0h-0.8q0 0 0 0-0.1 0-0.1 0 0-0.1 0-0.1-0.1 0-0.1-0.1 0 0 0.1 0 0-0.1 0-0.1 0 0 0.1 0 0-0.1 0-0.1h0.8q0.1 0 0.1 0.1 0 0 0.1 0 0 0 0 0.1 0 0 0 0 0 0.1 0 0.1 0 0 0 0.1-0.1 0-0.1 0 0 0-0.1 0z"/>
	<path id="Layer" class="s0" d="m13.9 15.4h-0.8q-0.1 0-0.1 0 0 0-0.1 0 0-0.1 0-0.1 0 0 0-0.1 0 0 0 0 0-0.1 0-0.1 0.1 0 0.1 0 0-0.1 0.1-0.1h0.8q0 0 0 0.1 0.1 0 0.1 0 0 0 0 0.1 0.1 0 0.1 0 0 0.1-0.1 0.1 0 0 0 0.1 0 0-0.1 0 0 0 0 0z"/>
	<path id="Layer" fill-rule="evenodd" class="s0" d="m17 18.6h-9q0 0-0.1-0.1 0 0 0 0-0.1 0-0.1-0.1 0 0 0 0v-2.2c-1.9-1.5-3.1-3.8-3.1-6.2 0-4.3 3.5-7.8 7.8-7.8 4.3 0 7.8 3.5 7.8 7.8 0 2.4-1.2 4.7-3.1 6.2v2.2q0 0 0 0 0 0.1-0.1 0.1 0 0 0 0-0.1 0.1-0.1 0.1zm-8.8-0.4h8.6v-2.1q0-0.1 0.1-0.2c1.9-1.4 3-3.6 3-5.9 0-4.1-3.3-7.5-7.4-7.5-4.1 0-7.4 3.4-7.4 7.5 0 2.3 1.1 4.5 3 5.9q0 0.1 0.1 0.1 0 0 0 0 0 0 0 0.1 0 0 0 0c0 0 0 2.1 0 2.1z"/>
	<path id="Layer" class="s0" d="m3.3 16.6q0 0 0 0 0 0 0 0 0 0 0 0-0.1 0-0.1 0c-2-1.1-3.2-3.2-3.2-5.5 0-3 2.2-5.6 5.2-6.1 0.2 0 0.3 0 0.3 0.1q0 0.1 0 0.1 0 0-0.1 0.1 0 0 0 0-0.1 0-0.1 0.1c-2.8 0.4-4.9 2.8-4.9 5.7 0 2.2 1.2 4.1 3 5.2q0.1 0 0.1 0 0 0 0 0.1 0 0 0 0.1 0 0 0 0 0 0.1 0 0.1-0.1 0-0.1 0 0 0 0 0 0 0-0.1 0z"/>
	<path id="Layer" class="s0" d="m3.3 19.3q0 0 0 0-0.1 0-0.1 0 0-0.1-0.1-0.1 0 0 0-0.1v-2.7q0 0 0 0 0.1-0.1 0.1-0.1 0 0 0.1 0 0-0.1 0-0.1 0.1 0 0.1 0.1 0 0 0.1 0 0 0 0 0.1 0 0 0 0v2.7q0 0.1 0 0.1 0 0 0 0.1-0.1 0-0.1 0 0 0-0.1 0z"/>
	<path id="Layer" class="s0" d="m7.2 19.7h-3.5q0 0 0 0 0 0-0.1 0 0 0 0 0 0 0 0 0l-0.4-0.4c-0.1-0.1-0.1-0.2 0-0.3 0.1-0.1 0.2-0.1 0.3 0l0.3 0.3h3.4q0.1 0 0.1 0 0 0.1 0.1 0.1 0 0 0 0.1 0 0 0 0 0 0.1 0 0.1 0 0 0 0.1-0.1 0-0.1 0 0 0-0.1 0zm-4.3-0.8q0 0 0 0-0.1 0-0.1 0 0 0 0-0.1-0.1 0-0.1 0 0-0.1 0.1-0.1 0-0.1 0-0.1 0 0 0.1 0 0 0 0 0l4.3-0.3c0.1 0 0.2 0.1 0.2 0.2q0 0.1 0 0.1 0 0 0 0.1-0.1 0-0.1 0 0 0-0.1 0l-4.3 0.2z"/>
	<path id="Layer" class="s0" d="m7.2 17.8h-3.9c-0.1 0-0.2-0.1-0.2-0.2 0-0.1 0.1-0.2 0.2-0.2h3.9c0.1 0 0.2 0.1 0.2 0.2 0 0.1-0.1 0.2-0.2 0.2z"/>
	<path id="Layer" class="s0" d="m5.9 20.5c-1.6 0-1.6-0.9-1.6-1q0 0 0 0 0-0.1 0.1-0.1 0 0 0-0.1 0.1 0 0.1 0 0 0 0.1 0 0 0.1 0 0.1 0.1 0 0.1 0 0 0.1 0 0.1c0 0.1 0 0.6 1.2 0.6 1.1 0 1.1-0.6 1.1-0.6 0-0.1 0.1-0.2 0.2-0.2 0.1 0 0.2 0.1 0.2 0.2 0 0.1 0 1-1.5 1z"/>
	<path id="Layer" class="s0" d="m1.8 11.3q-0.1 0-0.1 0 0 0-0.1 0 0-0.1 0-0.1 0 0 0-0.1c0-1.8 1.1-3.5 2.7-4.2q0.1-0.1 0.1-0.1 0.1 0 0.1 0.1 0 0 0.1 0 0 0 0 0.1 0 0 0 0 0 0.1 0 0.1 0 0 0 0.1-0.1 0-0.1 0c-1.5 0.7-2.5 2.2-2.5 3.9q0 0.1-0.1 0.1 0 0 0 0.1 0 0-0.1 0 0 0 0 0z"/>
	<path id="Layer" class="s0" d="m21.7 16.6q-0.1 0-0.1 0 0 0 0 0 0 0-0.1 0 0 0 0-0.1 0 0 0 0 0-0.1 0-0.1 0-0.1 0-0.1 0 0 0.1 0c1.8-1.1 3-3 3-5.2 0-2.9-2.1-5.3-4.9-5.7q0-0.1-0.1-0.1 0 0 0 0-0.1-0.1-0.1-0.1 0 0 0-0.1 0 0 0.1 0 0-0.1 0-0.1 0 0 0.1 0 0 0 0.1 0c3 0.5 5.2 3.1 5.2 6.1 0 2.3-1.2 4.4-3.2 5.5q-0.1 0-0.1 0z"/>
	<path id="Layer" class="s0" d="m21.7 19.3q-0.1 0-0.1 0 0 0-0.1 0 0-0.1 0-0.1 0 0 0-0.1v-2.7q0 0 0 0 0-0.1 0-0.1 0.1 0 0.1 0 0-0.1 0.1-0.1 0 0 0 0.1 0.1 0 0.1 0 0 0 0.1 0.1 0 0 0 0v2.7q0 0.1 0 0.1-0.1 0-0.1 0.1 0 0-0.1 0 0 0 0 0z"/>
	<path id="Layer" class="s0" d="m21.3 19.7h-3.5q-0.1 0-0.1 0 0 0-0.1 0 0-0.1 0-0.1 0 0 0-0.1 0 0 0 0 0-0.1 0-0.1 0.1 0 0.1-0.1 0 0 0.1 0h3.4l0.3-0.3c0.1-0.1 0.2-0.1 0.3 0 0.1 0.1 0.1 0.2 0 0.3l-0.4 0.4q0 0 0 0 0 0 0 0-0.1 0-0.1 0 0 0 0 0zm0.8-0.8l-4.3-0.2q-0.1 0-0.1 0 0 0-0.1 0 0-0.1 0-0.1 0 0 0-0.1c0-0.1 0.1-0.2 0.2-0.2l4.3 0.3q0 0 0 0 0.1 0 0.1 0 0 0 0 0.1 0.1 0 0.1 0.1 0 0-0.1 0 0 0.1 0 0.1 0 0-0.1 0 0 0 0 0z"/>
	<path id="Layer" class="s0" d="m21.7 17.8h-3.9c-0.1 0-0.2-0.1-0.2-0.2 0-0.1 0.1-0.2 0.2-0.2h3.9c0.1 0 0.2 0.1 0.2 0.2 0 0.1-0.1 0.2-0.2 0.2z"/>
	<path id="Layer" class="s0" d="m19.1 20.5c-1.5 0-1.5-0.9-1.5-1 0-0.1 0.1-0.2 0.2-0.2 0.1 0 0.2 0.1 0.2 0.2 0 0 0 0.6 1.1 0.6 1.2 0 1.2-0.6 1.2-0.6 0-0.1 0.1-0.2 0.2-0.2 0.1 0 0.2 0.1 0.2 0.2 0 0.1 0 1-1.6 1z"/>
	<path id="Layer" class="s0" d="m23.2 11.3q0 0 0 0-0.1 0-0.1 0 0-0.1 0-0.1-0.1 0-0.1-0.1c0-1.7-1-3.2-2.5-3.9q0 0-0.1 0 0-0.1 0-0.1 0 0 0-0.1 0 0 0 0c0-0.1 0.2-0.2 0.3-0.1 1.6 0.7 2.7 2.4 2.7 4.2q0 0.1 0 0.1 0 0 0 0.1-0.1 0-0.1 0 0 0-0.1 0z"/>
</svg>