<svg version="1.2" xmlns="http://www.w3.org/2000/svg" viewBox="0 0 20 20" width="20" height="20">
	<title>powerbuttonoff-svg</title>
	<style>
		.s0 { fill: #c71f1f;stroke: #f7f7f7;stroke-width: .3 } 
		.s1 { fill: #231f20;stroke: #f7f7f7;stroke-width: .3 } 
		.s2 { fill: none;stroke: #ffffff;stroke-linecap: round;stroke-width: 1.3 } 
	</style>
	<g id="SVGRepo_bgCarrier">
	</g>
	<g id="SVGRepo_iconCarrier">
		<path id="Layer" class="s0" d="m10 20c-5.5 0-10-4.5-10-10 0-5.5 4.5-10 10-10 5.5 0 10 4.5 10 10 0 5.5-4.5 10-10 10z"/>
		<g id="Layer" style="opacity: .2">
			<path id="Layer" class="s1" d="m10 16.3c-3.1-0.1-5.6-2.6-5.6-5.7 0-2 1-3.8 2.8-4.8 0.3-0.2 0.6-0.1 0.8 0.2 0.2 0.3 0.1 0.7-0.2 0.8-1.3 0.8-2.2 2.3-2.2 3.8 0 2.4 2 4.4 4.4 4.4 2.4 0 4.4-2 4.4-4.4 0-1.6-0.9-3-2.3-3.8-0.3-0.1-0.4-0.6-0.2-0.8 0.1-0.3 0.5-0.4 0.8-0.3 1.8 1 2.9 2.9 2.9 4.9 0 3.1-2.5 5.6-5.6 5.6z"/>
		</g>
		<g id="Layer" style="opacity: .2">
			<path id="Layer" class="s1" d="m10 11.3c-0.3-0.1-0.6-0.3-0.6-0.7v-6.2c0-0.4 0.3-0.7 0.6-0.7 0.3 0 0.6 0.3 0.6 0.7v6.2c0 0.4-0.3 0.6-0.6 0.6z"/>
		</g>
		<path id="Layer" class="s2" d="m12.4 5.6c1.6 0.9 2.6 2.5 2.6 4.4 0 2.8-2.3 5-5 5-2.8 0-5-2.3-5-5 0-1.8 1-3.4 2.5-4.3"/>
		<path id="Layer" class="s2" d="m10 10v-6.3"/>
	</g>
</svg>