<svg version="1.2" xmlns="http://www.w3.org/2000/svg" viewBox="0 0 25 25" width="25" height="25">
	<title>searchsvg-svg</title>
	<style>
		.s0 { fill: #2d3e50 } 
		.s1 { fill: #2e79bd } 
	</style>
	<path id="Layer" fill-rule="evenodd" class="s0" d="m24.4 9.2c0.1 2.2-0.7 4.4-2.1 6.2-1.5 1.7-3.5 2.8-5.8 3-2.2 0.3-4.4-0.3-6.3-1.6q-0.3-0.2-0.6-0.5l-0.8 0.8 0.1 0.2 0.7 0.7-5.7 5.9c-0.4 0.3-0.9 0.5-1.4 0.5-0.5 0-1-0.2-1.4-0.5-0.3-0.4-0.5-0.9-0.5-1.4 0-0.5 0.2-1 0.5-1.4l5.8-5.8 1 0.9 0.8-0.8q-0.1-0.1-0.2-0.2-0.1-0.1-0.1-0.2-0.1-0.1-0.2-0.2-0.1-0.1-0.1-0.2c-1.3-1.8-1.8-4.1-1.5-6.3 0.3-2.2 1.4-4.2 3.1-5.6 1.7-1.5 3.9-2.2 6.2-2.1 2.2 0.1 4.3 1 5.9 2.6 1.6 1.6 2.5 3.7 2.6 6zm-3.8 3.8q0.4-0.5 0.6-1.1 0.2-0.5 0.3-1.1 0.2-0.6 0.2-1.3c0-2.9-2.1-5.5-5-6.1-3-0.5-5.9 1-7 3.8-1.1 2.7-0.2 5.9 2.3 7.5 2.5 1.7 5.7 1.3 7.8-0.8q0.5-0.4 0.8-0.9z"/>
	<path id="Layer" class="s1" d="m18.5 8.9q0.1-0.1 0.3-0.1 0.2-0.1 0.3-0.1 0.2-0.1 0.4-0.2c0.4 1.7-0.3 3.6-1.8 4.5-1.5 1-3.4 0.9-4.8-0.2-1.4-1.1-2-3-1.3-4.7 0.6-1.7 2.2-2.7 4-2.7q-0.2 0.6-0.1 1.2 0.1 0.7 0.5 1.2 0.3 0.5 0.9 0.8 0.6 0.3 1.2 0.3 0.2 0 0.4 0z"/>
</svg>